<?xml version="1.0" encoding="UTF-8"?>
<svg id="Calque_1" data-name="Calque 1" xmlns="http://www.w3.org/2000/svg" version="1.1" viewBox="0 0 200 100">
  <defs>
    <style>
      .cls-1 {
        fill: #fc00f0;
      }

      .cls-1, .cls-2 {
        stroke-width: 0px;
      }

      .cls-2 {
        fill: #fff;
      }
    </style>
  </defs>
  <g>
    <path class="cls-1" d="M184.1,25.8c-1.3-1.7-2.8-3.1-4.4-4.5s-3.3-2.5-5.1-3.5c-4.6-2.6-9.2-3.9-14.1-4.1-4.8-.2-9.7.6-14.6,2.3-4.9,1.7-9.7,4.2-14.5,7.3-4.8,3.2-9.4,6.9-13.8,11-4.4,4.2-8.6,8.6-12.4,13.4-3.9,4.7-7.4,9.5-10.5,14.3-3.1,4.8-5.8,9.5-8,14-1,2.3-1.9,4.5-2.8,6.8-.4,1-.8,2.1-1.3,3.1,0,.2-.1.4-.2.5-.1.4-.3.8-.5,1.2-.2.3-.4.5-.7.6s-.6.1-.9,0c-.3,0-.4-.3-.5-.6,0-.4,0-.9.1-1.3.3-1.6.5-3.2.7-4.8.2-1.6.3-3.2.4-4.8,0-.5,0-.9,0-1.4,0-.2,0-.4,0-.7.2-2.8.4-5.5.5-8.3,0-1.3,0-2.6,0-3.9v-1.5c0-.3,0-.7,0-1,0-.2,0-.5-.1-.7,0-.4-.1-.7-.2-1.1,0-.4-.3-.7-.6-1-.4,0-.8.2-1.1.5-.3.3-.5.6-.7,1-.1.2-.2.4-.3.5-1.3,1.9-2.4,3.8-3.4,5.9-.7,1.5-1.5,2.9-2.2,4.4-1,2.1-2.1,4.1-3.1,6.2-.3.7-.7,1.3-1.1,2-.2.3-.4.6-.7.9-.5.4-1,.6-1.6.4-.5-.2-.8-.6-.9-1.3,0-1,0-2.1,0-3.1.1-1.9.3-3.9.6-5.8.2-1.3.3-2.5.5-3.8,1-7.8,1.9-15.5,2.8-23.3,0-.7.2-1.3.3-2,.1-.5.4-.8.9-.9.2,0,.4,0,.6,0,.2,0,.3.3.3.5,0,.5,0,1,0,1.6-.2,3.5-.6,7.1-1,10.8-.4,3.7-.9,7.3-1.4,11-.4,3.2-.8,6.3-1.2,9.3,0,.2,0,.5,0,.7,0,.7-.2,1.3-.2,2,0,0,0,.1,0,.2s0,0,.1.1c0,0,.1,0,.2,0s.1,0,.2-.1c.3-.6.7-1.2,1-1.8.6-1.2,1.2-2.3,1.8-3.5,1.2-2.3,2.3-4.7,3.6-7,.8-1.5,1.7-3,2.7-4.4.5-.7,1-1.3,1.7-1.8.9-.7,1.8-.9,2.5-.6s1.4.9,1.8,1.9c.3,1,.5,2,.5,3,0,1.3.1,2.5,0,3.8,0,1.3-.1,2.5-.2,3.8,0,.2,0,.5,0,.7-.1,2.2-.3,4.5-.5,6.8,0,1-.1,2-.2,3.1.3-.2.5-.4.6-.6s.2-.4.3-.5c0,0,0-.2.1-.2,2-4.7,4.4-9.4,7.5-14.4,3-5,6.4-9.8,10.3-14.6,3.8-4.8,7.9-9.4,12.4-13.7,4.4-4.3,9-8.1,13.8-11.4,4.8-3.3,9.7-6,14.6-8s9.9-3.1,14.7-3.3c4.9-.2,9.6.6,14.2,2.6,4.6,2,8.9,5.2,13,9.8,0,0,0,.1.1.2.4.4.7.8.9,1.3,0,.2,0,.4-.1.5-.1.1-.3.2-.5.3-.2,0-.4,0-.5-.2s-.3-.3-.4-.5h0Z"/>
    <path class="cls-1" d="M104.9,68c-.6.7-1.2,1.3-2,1.9s-1.7.9-2.6,1.1c-1,.2-1.7.1-2.3-.2-.5-.3-.7-1.1-.3-2.3.4-1.2,1-2.4,1.8-3.5.2-.2.4-.4.7-.5.2,0,.4,0,.6.1.2.1.2.3.2.5-.2.4-.3.8-.5,1.2-.2.4-.3.6-.4.8-.4.7-.6,1.4-.8,2.1,0,.4.6.4,1.7,0,1.1-.4,2.2-1.1,3.3-2.1,1.1-1,1.6-1.3,1.5-.9,0,.4-.4.9-.9,1.6h0ZM102.1,62.6c0,0-.2,0-.3.2s-.3,0-.5.1c-.2,0-.3,0-.4,0s-.1-.3,0-.5c.2-.5.3-.8.5-1.2.2-.3.4-.7.7-1.1.2-.2.4-.3.6-.3s.4,0,.6.2c.2.1.2.3.1.5-.2.8-.7,1.6-1.3,2.2Z"/>
    <path class="cls-1" d="M112.7,67.1c.3-.3.6-.6.9-.6.2,0,.4,0,.5.1,0,.1,0,.3-.1.5-.9,1.1-2,2.1-3.2,2.9s-2.4,1.3-3.6,1.4c-1.2.1-2-.5-2.2-2-.2-1.5.7-4.4,2.7-8.9s3.5-8.2,4.7-11c0-.3.2-.5.4-.7.3-.3.6-.3.9-.2.1,0,.2.1.3.3.1.1.2.3.1.6-5,12-7.5,18.4-7.3,19.5.2,1,.8,1.3,2,.8,1.2-.5,2.1-1.1,2.8-1.6.6-.6,1.1-.9,1.2-1.1h0Z"/>
    <path class="cls-1" d="M127.3,66.3c.2,0,.3.2.4.4-.3.4-.6.9-.9,1.2-.8.8-1.6,1.5-2.6,2-.5.3-1,.4-1.7.4-1.4,0-2.1-.7-2-2.1,0-.3.1-.6.2-.9,0-.1,0-.3.1-.4.1-.5.2-.8.1-.8,0,0-.2,0-.5.4,0,0-.1.1-.2.2-.4.5-.9,1-1.3,1.5-.8.9-1.8,1.7-2.8,2.4-.6.4-1.3.6-2,.6-1.2,0-1.8-.5-1.9-1.6,0-.4,0-.9,0-1.3.5-1.8,1.4-3.2,2.8-4.1,1.4-1,3-1.3,4.8-1,.5.2.9,0,1.1-.4,0-.2.2-.3.3-.5.5-.8,1-1.7,1.4-2.5.9-1.6,1.8-3.2,2.7-4.9.7-1.3,1.4-2.6,2.2-3.9.2-.4.4-.8.7-1.2.1-.2.3-.3.4-.3.2,0,.4,0,.6,0h.1c.2,0,.4,0,.5.2.1.1.1.2,0,.4-.1.5-.3.9-.5,1.3-1,2-1.9,3.9-2.8,6-.9,2-1.7,4-2.6,6.1-.3.7-.6,1.4-.8,2.1-.3.8-.6,1.7-.9,2.5,0,.2,0,.4,0,.6s0,.3.3.5c.1,0,.2,0,.4,0,.1,0,.3,0,.4-.2,0,0,0,0,0,0,1-.6,1.9-1.3,2.8-2.1.1-.1.3-.3.4-.3.2,0,.3-.1.6,0h0ZM119.4,65.3c.1-.2.2-.4,0-.6s-.2-.3-.4-.4c-.4-.2-.8-.2-1.3,0-1.1.3-2,1-2.8,1.9-.7.9-1.1,1.9-1.2,3.1,0,0,0,0,0,.1v.3c0,.5.4.6.9.3.5-.3,1.1-.8,1.8-1.5s1.3-1.4,1.8-2,.8-1,.9-1.1h0Z"/>
  </g>
  <g>
    <path class="cls-2" d="M11.9,39.9h-7.1v-11.2h2.2v9.3h4.9v1.9Z"/>
    <path class="cls-2" d="M16.5,31.4c2.5,0,4.2,1.8,4.2,4.4v.6h-6.4c.3,1.1,1.2,1.9,2.3,1.9s1.6-.3,2.2-1.1l1.5,1.1c-.8,1.1-2.1,1.8-3.6,1.8-2.5,0-4.5-1.8-4.5-4.4s1.9-4.3,4.3-4.3h0ZM14.4,34.9h4.3c-.3-1-1.2-1.6-2.2-1.6s-1.8.6-2.1,1.6Z"/>
    <path class="cls-2" d="M21.4,37.3h2c.2.8,1,1.2,1.9,1.2s1.2-.3,1.2-.8-.3-.6-.8-.8l-1.7-.4c-1.5-.4-2.3-1.2-2.3-2.4s1.3-2.6,3.1-2.6,3.4,1.2,3.6,2.8h-2c-.2-.9-1-1.2-1.7-1.2s-1,.3-1,.8.3.7,1,.9l1.6.4c1.5.4,2.3,1.2,2.3,2.4s-1.2,2.6-3.2,2.6-3.5-1.2-3.8-2.8h0Z"/>
    <path class="cls-2" d="M32.7,28.7h2.1v3.7c.7-.6,1.7-1,2.7-1,2.5,0,4.4,2,4.4,4.4s-2,4.4-4.4,4.4-1.9-.4-2.7-1v.8h-2.1v-11.2h0ZM37.3,38.3c1.4,0,2.5-1.1,2.5-2.5s-1.1-2.5-2.5-2.5-2.5,1.1-2.5,2.5,1.1,2.5,2.5,2.5Z"/>
    <path class="cls-2" d="M47.4,40.1c-2.5,0-4.6-2-4.6-4.4s2-4.4,4.6-4.4,4.6,1.9,4.6,4.4-2,4.4-4.6,4.4ZM47.4,33.3c-1.4,0-2.5,1.1-2.5,2.5s1.1,2.5,2.5,2.5,2.5-1.1,2.5-2.5-1.1-2.5-2.5-2.5Z"/>
    <path class="cls-2" d="M60.7,39.9h-2.1v-4.9c0-1.1-.7-1.8-1.7-1.8s-1.7.7-1.7,1.8v4.9h-2.1v-8.3h2.1v.7c.6-.6,1.4-.9,2.3-.9,1.9,0,3.3,1.4,3.3,3.2v5.3Z"/>
    <path class="cls-2" d="M69.8,39.9h-2.1v-4.9c0-1.1-.7-1.8-1.7-1.8s-1.7.7-1.7,1.8v4.9h-2.1v-8.3h2.1v.7c.6-.6,1.4-.9,2.3-.9,1.9,0,3.3,1.4,3.3,3.2,0,0,0,5.3,0,5.3Z"/>
    <path class="cls-2" d="M75.3,31.4c2.5,0,4.2,1.8,4.2,4.4v.6h-6.4c.3,1.1,1.2,1.9,2.3,1.9s1.6-.3,2.2-1.1l1.5,1.1c-.8,1.1-2.1,1.8-3.6,1.8-2.5,0-4.5-1.8-4.5-4.4s1.8-4.3,4.3-4.3h0ZM73.2,34.9h4.2c-.3-1-1.2-1.6-2.2-1.6s-1.8.6-2.1,1.6Z"/>
    <path class="cls-2" d="M80.2,37.3h2c.2.8.9,1.2,1.8,1.2s1.2-.3,1.2-.8-.3-.6-.8-.8l-1.7-.4c-1.5-.4-2.3-1.2-2.3-2.4s1.3-2.6,3.1-2.6,3.4,1.2,3.6,2.8h-2c-.2-.9-1-1.2-1.7-1.2s-1,.3-1,.8.3.7,1,.9l1.6.4c1.5.4,2.3,1.2,2.3,2.4s-1.2,2.6-3.2,2.6-3.5-1.2-3.8-2.8h0Z"/>
    <path class="cls-2" d="M93.9,35.1l2.4-.2v-.3c0-.8-.6-1.3-1.5-1.3s-1.5.2-2.2.7l-.9-1.5c1-.7,2.1-1.1,3.3-1.1,2,0,3.3,1.2,3.3,2.9v3.3c0,.3.2.5.5.5h.4v1.8h-1c-.8,0-1.4-.4-1.7-1-.6.7-1.5,1.2-2.6,1.2-1.7,0-2.9-1.1-2.9-2.5s1-2.3,2.8-2.5h0ZM94.5,38.5c1,0,1.9-.7,1.9-1.5v-.5l-2.2.2c-.7,0-1.1.3-1.1.9s.6,1,1.3.9Z"/>
    <path class="cls-2" d="M106.9,39.9v-.8c-.7.6-1.7,1-2.7,1-2.5,0-4.4-2-4.4-4.4s2-4.4,4.4-4.4,1.9.4,2.7,1v-3.7h2.1v11.2h-2.1,0ZM104.4,33.3c-1.4,0-2.5,1.1-2.5,2.5s1.1,2.5,2.5,2.5,2.5-1.1,2.5-2.5-1.1-2.5-2.5-2.5Z"/>
    <path class="cls-2" d="M114.3,33.5c-1,0-1.8.7-1.8,2v4.5h-2.1v-8.3h2.1v.9c.4-.6,1.1-1,2-1h.6v1.9s-.8,0-.8,0Z"/>
    <path class="cls-2" d="M119.8,31.4c2.5,0,4.2,1.8,4.2,4.4v.6h-6.4c.3,1.1,1.2,1.9,2.3,1.9s1.6-.3,2.2-1.1l1.5,1.1c-.8,1.1-2.1,1.8-3.6,1.8-2.5,0-4.5-1.8-4.5-4.4s1.8-4.3,4.3-4.3h0ZM117.7,34.9h4.2c-.3-1-1.2-1.6-2.2-1.6s-1.8.6-2.1,1.6Z"/>
    <path class="cls-2" d="M124.7,37.3h2c.2.8.9,1.2,1.9,1.2s1.2-.3,1.2-.8-.3-.6-.8-.8l-1.7-.4c-1.5-.4-2.3-1.2-2.3-2.4s1.3-2.6,3.1-2.6,3.4,1.2,3.6,2.8h-2c-.2-.9-1-1.2-1.7-1.2s-1,.3-1,.8.3.7,1,.9l1.6.4c1.5.4,2.3,1.2,2.3,2.4s-1.2,2.6-3.2,2.6-3.5-1.2-3.8-2.8h0Z"/>
    <path class="cls-2" d="M132.5,37.3h2c.2.8.9,1.2,1.9,1.2s1.2-.3,1.2-.8-.3-.6-.8-.8l-1.7-.4c-1.5-.4-2.3-1.2-2.3-2.4s1.3-2.6,3.1-2.6,3.4,1.2,3.6,2.8h-2c-.2-.9-1-1.2-1.7-1.2s-1,.3-1,.8.3.7,1,.9l1.6.4c1.5.4,2.3,1.2,2.3,2.4s-1.2,2.6-3.2,2.6-3.5-1.2-3.8-2.8h0Z"/>
    <path class="cls-2" d="M144.6,31.4c2.5,0,4.2,1.8,4.2,4.4v.6h-6.4c.3,1.1,1.2,1.9,2.3,1.9s1.6-.3,2.2-1.1l1.5,1.1c-.8,1.1-2.1,1.8-3.6,1.8-2.5,0-4.5-1.8-4.5-4.4s1.9-4.3,4.3-4.3h0ZM142.5,34.9h4.2c-.3-1-1.2-1.6-2.2-1.6s-1.8.6-2.1,1.6Z"/>
    <path class="cls-2" d="M149.5,37.3h2c.2.8.9,1.2,1.9,1.2s1.2-.3,1.2-.8-.3-.6-.8-.8l-1.7-.4c-1.5-.4-2.3-1.2-2.3-2.4s1.3-2.6,3.1-2.6,3.4,1.2,3.6,2.8h-2c-.2-.9-1-1.2-1.7-1.2s-1,.3-1,.8.3.7,1,.9l1.6.4c1.5.4,2.3,1.2,2.3,2.4s-1.2,2.6-3.2,2.6-3.5-1.2-3.8-2.8h0Z"/>
    <path class="cls-2" d="M167.7,39.9v-.8c-.7.6-1.7,1-2.7,1-2.5,0-4.4-2-4.4-4.4s2-4.4,4.4-4.4,1.9.4,2.7,1v-3.7h2.1v11.2h-2.1,0ZM165.2,33.3c-1.4,0-2.5,1.1-2.5,2.5s1.1,2.5,2.5,2.5,2.5-1.1,2.5-2.5-1.1-2.5-2.5-2.5Z"/>
    <path class="cls-2" d="M175.2,31.4c2.5,0,4.2,1.8,4.2,4.4v.6h-6.4c.3,1.1,1.2,1.9,2.3,1.9s1.6-.3,2.2-1.1l1.5,1.1c-.8,1.1-2.1,1.8-3.6,1.8-2.5,0-4.5-1.8-4.5-4.4s1.9-4.3,4.3-4.3h0ZM173.1,34.9h4.2c-.3-1-1.2-1.6-2.2-1.6s-1.8.6-2.1,1.6Z"/>
    <path class="cls-2" d="M183.8,39.9v-11.2h2.1v11.2h-2.1Z"/>
    <path class="cls-2" d="M189.8,35.1l2.4-.2v-.3c0-.8-.6-1.3-1.5-1.3s-1.5.2-2.2.7l-.9-1.5c1-.7,2.1-1.1,3.3-1.1,2,0,3.3,1.2,3.3,2.9v3.3c0,.3.2.5.5.5h.4v1.8h-1c-.8,0-1.4-.4-1.7-1-.6.7-1.5,1.2-2.6,1.2-1.6,0-2.9-1.1-2.9-2.5s1-2.3,2.8-2.5h0ZM190.4,38.5c1,0,1.9-.7,1.9-1.5v-.5l-2.1.2c-.7,0-1.1.3-1.1.9s.6,1,1.3,1h0Z"/>
  </g>
</svg>