<?xml version="1.0" encoding="UTF-8"?>
<svg id="Calque_1" data-name="Calque 1" xmlns="http://www.w3.org/2000/svg" version="1.1" viewBox="0 0 200 100">
  <defs>
    <style>
      .cls-1 {
        fill: #fc00f0;
      }

      .cls-1, .cls-2 {
        stroke-width: 0px;
      }

      .cls-2 {
        fill: #030404;
      }
    </style>
  </defs>
  <g>
    <path class="cls-1" d="M158.26,25.8c-1.34-1.66-2.8-3.15-4.38-4.46-1.58-1.31-3.27-2.48-5.07-3.51-4.55-2.56-9.23-3.93-14.06-4.11-4.82-.19-9.68.57-14.58,2.28-4.9,1.71-9.73,4.15-14.49,7.32-4.76,3.17-9.36,6.85-13.78,11.02-4.42,4.17-8.56,8.62-12.43,13.35-3.87,4.73-7.36,9.51-10.49,14.35-3.13,4.84-5.78,9.51-7.96,14-.96,2.26-1.88,4.52-2.78,6.79-.42,1.03-.84,2.07-1.26,3.1-.06.18-.13.36-.21.53-.14.39-.3.78-.5,1.15-.16.31-.39.52-.68.64-.29.12-.6.12-.93,0-.28-.1-.43-.31-.46-.64,0-.45.04-.89.11-1.33.28-1.6.49-3.19.65-4.78.15-1.59.28-3.19.38-4.78.04-.47.07-.95.1-1.44.03-.21.06-.44.08-.67.21-2.76.39-5.52.53-8.29.06-1.31.09-2.61.06-3.9v-1.55c.02-.35,0-.69-.06-1.02-.05-.23-.09-.48-.11-.73-.04-.37-.11-.74-.21-1.1-.1-.36-.28-.69-.56-.97-.45.05-.81.23-1.08.52-.27.29-.5.63-.68,1-.12.18-.23.36-.35.53-1.27,1.87-2.39,3.83-3.37,5.86-.73,1.46-1.46,2.91-2.19,4.36-1.03,2.07-2.06,4.14-3.08,6.21-.35.68-.72,1.35-1.1,2.01-.18.33-.4.62-.65.88-.52.45-1.04.58-1.56.41-.52-.18-.81-.6-.87-1.29-.07-1.03-.05-2.08.06-3.13.14-1.95.33-3.89.56-5.83.17-1.27.34-2.53.5-3.8.99-7.75,1.91-15.53,2.75-23.34.06-.65.18-1.3.35-1.96.12-.47.41-.78.88-.94.21-.05.41-.03.6.06.19.1.28.26.28.5,0,.51-.03,1.04-.08,1.58-.23,3.51-.57,7.11-1,10.77-.43,3.67-.9,7.34-1.41,11.01-.43,3.16-.83,6.28-1.2,9.34-.02.23-.05.47-.08.7-.09.66-.17,1.32-.24,1.96,0,.07.02.14.07.2s.09.1.14.12c.05,0,.12-.02.2-.05s.13-.07.15-.13c.33-.59.65-1.18.96-1.79.59-1.17,1.17-2.34,1.76-3.51,1.17-2.34,2.35-4.69,3.55-7.03.8-1.54,1.7-3.02,2.7-4.42.47-.7,1.02-1.31,1.66-1.84.9-.65,1.75-.86,2.52-.64s1.36.86,1.76,1.92c.31.96.48,1.95.53,2.99.1,1.26.12,2.52.07,3.79-.05,1.27-.12,2.53-.22,3.8-.02.23-.03.47-.03.7-.14,2.23-.3,4.48-.5,6.77-.06,1.01-.13,2.03-.21,3.07.28-.19.48-.38.61-.57.13-.19.22-.36.26-.52.02-.07.06-.15.11-.22,1.96-4.65,4.45-9.45,7.47-14.4,3.02-4.95,6.45-9.83,10.28-14.64,3.83-4.81,7.95-9.36,12.37-13.65,4.42-4.29,9.03-8.1,13.83-11.44,4.8-3.34,9.67-6,14.61-7.98s9.85-3.08,14.72-3.31c4.87-.22,9.6.65,14.2,2.62,4.59,1.97,8.93,5.23,13.01,9.77.04.06.09.13.13.21.4.35.7.79.88,1.33.05.19.02.36-.1.52-.12.15-.27.24-.46.26-.21,0-.39-.05-.54-.16-.15-.11-.29-.26-.43-.45Z"/>
    <path class="cls-1" d="M79.07,67.97c-.57.68-1.24,1.3-2.02,1.86-.78.56-1.66.95-2.64,1.14-.98.2-1.74.13-2.28-.22-.54-.34-.65-1.1-.32-2.27.43-1.21,1.01-2.37,1.76-3.47.17-.23.42-.4.73-.5.23-.05.44-.01.62.12.18.13.24.3.2.5-.16.38-.34.77-.53,1.15-.19.38-.32.63-.38.75-.37.68-.63,1.4-.78,2.14,0,.43.57.45,1.71.08,1.14-.37,2.25-1.06,3.32-2.05,1.08-1,1.59-1.29,1.54-.88-.05.41-.36.95-.93,1.63ZM76.28,62.63c-.05.04-.16.09-.33.15-.17.06-.34.1-.53.13-.19.03-.33,0-.44-.09-.11-.09-.11-.26-.02-.51.17-.45.35-.84.54-1.17.19-.34.43-.71.73-1.11.19-.18.4-.28.62-.3.22-.02.41.04.56.18.15.13.19.32.13.55-.23.84-.65,1.57-1.26,2.17Z"/>
    <path class="cls-1" d="M86.87,67.09c.35-.35.64-.55.88-.59.23-.04.39,0,.46.11.07.12.02.28-.14.48-.94,1.13-1.99,2.1-3.15,2.92-1.16.82-2.36,1.29-3.59,1.42-1.23.13-1.97-.54-2.23-2.01-.19-1.46.69-4.43,2.65-8.91,1.96-4.48,3.51-8.16,4.65-11.02.1-.26.24-.48.43-.67.26-.26.56-.31.91-.18.12.05.23.14.35.26.12.12.15.32.11.62-5.04,11.95-7.47,18.44-7.32,19.49.16,1.04.83,1.3,2.02.77,1.19-.53,2.1-1.06,2.75-1.61.64-.55,1.05-.91,1.21-1.08Z"/>
    <path class="cls-1" d="M101.49,66.3c.22.06.35.19.37.41-.26.45-.55.86-.88,1.23-.76.84-1.63,1.51-2.64,2.01-.49.28-1.04.43-1.66.45-1.43.02-2.08-.67-1.96-2.08.05-.3.12-.59.21-.88.05-.14.09-.28.11-.42.14-.51.18-.8.12-.85-.06-.06-.23.09-.5.44-.07.06-.14.13-.21.21-.43.51-.86,1.01-1.31,1.5-.82.94-1.76,1.72-2.81,2.36-.63.37-1.29.57-2,.59-1.15.05-1.79-.47-1.93-1.58-.05-.45-.03-.89.06-1.33.47-1.81,1.41-3.19,2.81-4.14,1.41-.95,3.01-1.28,4.82-1.01.51.15.88.01,1.12-.42.1-.16.19-.32.29-.5.49-.84.97-1.68,1.44-2.52.88-1.62,1.77-3.25,2.67-4.89.72-1.29,1.45-2.59,2.17-3.9.21-.4.45-.79.7-1.17.12-.18.26-.29.44-.33.18-.04.36-.06.55-.06h.14c.21,0,.38.05.51.16.13.11.15.25.08.43-.14.45-.3.87-.5,1.28-.98,1.96-1.9,3.94-2.77,5.95-.87,2.01-1.72,4.03-2.56,6.06-.28.7-.56,1.41-.85,2.11-.35.82-.64,1.66-.88,2.52-.06.19-.1.38-.1.57s.09.35.27.49c.12.07.24.09.37.04.13-.05.27-.1.42-.17.02-.03.05-.06.1-.08,1.01-.59,1.94-1.29,2.78-2.11.14-.14.28-.26.44-.35.15-.1.34-.11.57-.06ZM93.6,65.27c.12-.19.15-.38.1-.55s-.17-.31-.36-.39c-.39-.21-.81-.24-1.26-.08-1.1.33-2.02.96-2.76,1.88-.74.93-1.14,1.95-1.21,3.07.02.05.03.09.03.11v.29c.1.51.41.61.95.3.54-.31,1.14-.82,1.8-1.53s1.26-1.37,1.79-2c.53-.63.83-1,.9-1.09Z"/>
  </g>
  <g>
    <path class="cls-2" d="M11.91,39.92h-7.08v-11.23h2.17v9.34h4.91v1.89Z"/>
    <path class="cls-2" d="M16.5,31.43c2.49,0,4.25,1.85,4.25,4.43v.61h-6.4c.27,1.07,1.17,1.86,2.33,1.86.88,0,1.57-.3,2.18-1.09l1.46,1.09c-.83,1.14-2.09,1.8-3.63,1.8-2.54,0-4.49-1.83-4.49-4.36,0-2.31,1.85-4.33,4.3-4.33ZM14.38,34.86h4.25c-.3-1.03-1.17-1.64-2.18-1.64s-1.78.63-2.07,1.64Z"/>
    <path class="cls-2" d="M21.44,37.3h1.99c.21.83.95,1.19,1.85,1.19.77,0,1.19-.35,1.19-.85,0-.34-.27-.63-.83-.77l-1.72-.4c-1.54-.37-2.33-1.17-2.33-2.44,0-1.59,1.32-2.62,3.1-2.62,2.12,0,3.4,1.25,3.64,2.84h-1.97c-.22-.87-.99-1.22-1.68-1.22s-1.03.34-1.03.77.34.72.99.88l1.59.38c1.52.37,2.28,1.17,2.28,2.41,0,1.49-1.22,2.63-3.23,2.63-2.18,0-3.51-1.22-3.83-2.81Z"/>
    <path class="cls-2" d="M32.74,28.68h2.1v3.71c.74-.61,1.65-.98,2.66-.98,2.47,0,4.43,1.96,4.43,4.36s-1.96,4.36-4.43,4.36c-1.01,0-1.94-.37-2.68-.99v.77h-2.09v-11.23ZM37.33,38.31c1.38,0,2.52-1.14,2.52-2.54s-1.14-2.52-2.52-2.52-2.52,1.11-2.52,2.52,1.12,2.54,2.52,2.54Z"/>
    <path class="cls-2" d="M47.36,40.14c-2.5,0-4.56-1.96-4.56-4.36s2.05-4.36,4.56-4.36,4.56,1.94,4.56,4.36-2.04,4.36-4.56,4.36ZM47.36,33.27c-1.36,0-2.47,1.11-2.47,2.5s1.11,2.5,2.47,2.5,2.47-1.11,2.47-2.5-1.09-2.5-2.47-2.5Z"/>
    <path class="cls-2" d="M60.73,39.92h-2.1v-4.86c0-1.07-.69-1.78-1.72-1.78s-1.73.67-1.73,1.78v4.86h-2.1v-8.3h2.1v.71c.58-.59,1.38-.93,2.28-.93,1.94,0,3.27,1.43,3.27,3.24v5.28Z"/>
    <path class="cls-2" d="M69.82,39.92h-2.1v-4.86c0-1.07-.69-1.78-1.72-1.78s-1.73.67-1.73,1.78v4.86h-2.1v-8.3h2.1v.71c.58-.59,1.38-.93,2.28-.93,1.94,0,3.27,1.43,3.27,3.24v5.28Z"/>
    <path class="cls-2" d="M75.28,31.43c2.49,0,4.25,1.85,4.25,4.43v.61h-6.4c.27,1.07,1.17,1.86,2.33,1.86.88,0,1.57-.3,2.18-1.09l1.46,1.09c-.83,1.14-2.09,1.8-3.63,1.8-2.53,0-4.49-1.83-4.49-4.36,0-2.31,1.85-4.33,4.3-4.33ZM73.16,34.86h4.25c-.3-1.03-1.17-1.64-2.18-1.64s-1.78.63-2.07,1.64Z"/>
    <path class="cls-2" d="M80.22,37.3h1.99c.21.83.95,1.19,1.85,1.19.77,0,1.19-.35,1.19-.85,0-.34-.27-.63-.83-.77l-1.72-.4c-1.54-.37-2.33-1.17-2.33-2.44,0-1.59,1.32-2.62,3.1-2.62,2.12,0,3.4,1.25,3.64,2.84h-1.97c-.22-.87-.99-1.22-1.68-1.22s-1.03.34-1.03.77.34.72.99.88l1.59.38c1.52.37,2.28,1.17,2.28,2.41,0,1.49-1.22,2.63-3.23,2.63-2.18,0-3.51-1.22-3.83-2.81Z"/>
    <path class="cls-2" d="M93.93,35.12l2.44-.18v-.32c0-.82-.55-1.32-1.52-1.32-.75,0-1.46.24-2.2.74l-.88-1.49c.96-.71,2.07-1.11,3.34-1.11,1.99,0,3.31,1.16,3.31,2.92v3.26c0,.3.16.48.47.48h.43v1.81h-.98c-.8,0-1.41-.37-1.7-.98-.58.74-1.49,1.19-2.6,1.19-1.65,0-2.87-1.07-2.87-2.54s1.01-2.34,2.78-2.47ZM94.49,38.52c1.04,0,1.88-.67,1.88-1.51v-.53l-2.15.19c-.71.06-1.06.35-1.06.9,0,.58.55.95,1.33.95Z"/>
    <path class="cls-2" d="M106.92,39.92v-.77c-.74.63-1.67.99-2.68.99-2.47,0-4.43-1.97-4.43-4.36s1.96-4.36,4.43-4.36c1.01,0,1.93.37,2.66.98v-3.71h2.1v11.23h-2.09ZM104.42,33.26c-1.38,0-2.52,1.11-2.52,2.52s1.14,2.54,2.52,2.54,2.52-1.14,2.52-2.54-1.12-2.52-2.52-2.52Z"/>
    <path class="cls-2" d="M114.32,33.47c-.99,0-1.77.72-1.77,1.99v4.46h-2.1v-8.3h2.09v.9c.42-.61,1.07-.98,1.97-.98h.56v1.93h-.75Z"/>
    <path class="cls-2" d="M119.79,31.43c2.49,0,4.25,1.85,4.25,4.43v.61h-6.4c.27,1.07,1.17,1.86,2.33,1.86.88,0,1.57-.3,2.18-1.09l1.46,1.09c-.83,1.14-2.09,1.8-3.63,1.8-2.53,0-4.49-1.83-4.49-4.36,0-2.31,1.85-4.33,4.3-4.33ZM117.68,34.86h4.25c-.3-1.03-1.17-1.64-2.18-1.64s-1.78.63-2.07,1.64Z"/>
    <path class="cls-2" d="M124.74,37.3h1.99c.21.83.95,1.19,1.85,1.19.77,0,1.19-.35,1.19-.85,0-.34-.27-.63-.83-.77l-1.72-.4c-1.54-.37-2.33-1.17-2.33-2.44,0-1.59,1.32-2.62,3.1-2.62,2.12,0,3.4,1.25,3.64,2.84h-1.97c-.22-.87-.99-1.22-1.68-1.22s-1.03.34-1.03.77.34.72.99.88l1.59.38c1.52.37,2.28,1.17,2.28,2.41,0,1.49-1.22,2.63-3.23,2.63-2.18,0-3.51-1.22-3.83-2.81Z"/>
    <path class="cls-2" d="M132.5,37.3h1.99c.21.83.95,1.19,1.85,1.19.77,0,1.19-.35,1.19-.85,0-.34-.27-.63-.83-.77l-1.72-.4c-1.54-.37-2.33-1.17-2.33-2.44,0-1.59,1.32-2.62,3.1-2.62,2.12,0,3.4,1.25,3.64,2.84h-1.97c-.22-.87-.99-1.22-1.68-1.22s-1.03.34-1.03.77.34.72.99.88l1.59.38c1.52.37,2.28,1.17,2.28,2.41,0,1.49-1.22,2.63-3.23,2.63-2.18,0-3.51-1.22-3.83-2.81Z"/>
    <path class="cls-2" d="M144.6,31.43c2.49,0,4.25,1.85,4.25,4.43v.61h-6.4c.27,1.07,1.17,1.86,2.33,1.86.88,0,1.57-.3,2.18-1.09l1.46,1.09c-.83,1.14-2.09,1.8-3.63,1.8-2.53,0-4.49-1.83-4.49-4.36,0-2.31,1.85-4.33,4.3-4.33ZM142.48,34.86h4.25c-.3-1.03-1.17-1.64-2.18-1.64s-1.78.63-2.07,1.64Z"/>
    <path class="cls-2" d="M149.54,37.3h1.99c.21.83.95,1.19,1.85,1.19.77,0,1.19-.35,1.19-.85,0-.34-.27-.63-.83-.77l-1.72-.4c-1.54-.37-2.33-1.17-2.33-2.44,0-1.59,1.32-2.62,3.1-2.62,2.12,0,3.4,1.25,3.64,2.84h-1.97c-.22-.87-.99-1.22-1.68-1.22s-1.03.34-1.03.77.34.72.99.88l1.59.38c1.52.37,2.28,1.17,2.28,2.41,0,1.49-1.22,2.63-3.23,2.63-2.18,0-3.51-1.22-3.83-2.81Z"/>
    <path class="cls-2" d="M167.66,39.92v-.77c-.74.63-1.67.99-2.68.99-2.47,0-4.43-1.97-4.43-4.36s1.96-4.36,4.43-4.36c1.01,0,1.93.37,2.66.98v-3.71h2.1v11.23h-2.09ZM165.16,33.26c-1.38,0-2.52,1.11-2.52,2.52s1.14,2.54,2.52,2.54,2.52-1.14,2.52-2.54-1.12-2.52-2.52-2.52Z"/>
    <path class="cls-2" d="M175.2,31.43c2.49,0,4.25,1.85,4.25,4.43v.61h-6.4c.27,1.07,1.17,1.86,2.33,1.86.88,0,1.57-.3,2.18-1.09l1.46,1.09c-.83,1.14-2.09,1.8-3.63,1.8-2.53,0-4.49-1.83-4.49-4.36,0-2.31,1.85-4.33,4.3-4.33ZM173.08,34.86h4.25c-.3-1.03-1.17-1.64-2.18-1.64s-1.78.63-2.07,1.64Z"/>
    <path class="cls-2" d="M183.84,39.92v-11.23h2.1v11.23h-2.1Z"/>
    <path class="cls-2" d="M189.79,35.12l2.44-.18v-.32c0-.82-.55-1.32-1.52-1.32-.75,0-1.46.24-2.2.74l-.88-1.49c.96-.71,2.07-1.11,3.34-1.11,1.99,0,3.31,1.16,3.31,2.92v3.26c0,.3.16.48.47.48h.43v1.81h-.98c-.8,0-1.41-.37-1.7-.98-.58.74-1.49,1.19-2.6,1.19-1.65,0-2.87-1.07-2.87-2.54s1.01-2.34,2.78-2.47ZM190.35,38.52c1.04,0,1.88-.67,1.88-1.51v-.53l-2.15.19c-.71.06-1.06.35-1.06.9,0,.58.55.95,1.33.95Z"/>
  </g>
</svg>