<?xml version="1.0" encoding="UTF-8"?>
<svg id="Calque_1" data-name="Calque 1" xmlns="http://www.w3.org/2000/svg" version="1.1" viewBox="0 0 100 100">
  <defs>
    <style>
      .cls-1 {
        stroke: #000;
        stroke-miterlimit: 10;
        stroke-width: 2px;
      }

      .cls-1, .cls-2, .cls-3 {
        fill: none;
      }

      .cls-4 {
        fill: #000;
      }

      .cls-4, .cls-3 {
        stroke-width: 0px;
      }

      .cls-2 {
        stroke: #fff;
      }
    </style>
  </defs>
  <g>
    <circle class="cls-1" cx="50" cy="22.85" r="21.44"/>
    <path class="cls-1" d="M38.54,54.18h22.93c12.84,0,23.26,10.42,23.26,23.26v21.46H15.28v-21.46c0-12.84,10.42-23.26,23.26-23.26Z"/>
  </g>
  <line class="cls-2" x1="167.99" y1="33.37" x2="185.49" y2="33.37"/>
  <line class="cls-2" x1="167.99" y1="39.62" x2="185.49" y2="39.62"/>
  <line class="cls-2" x1="167.99" y1="45.87" x2="185.49" y2="45.87"/>
  <rect class="cls-3" x="118.19" y="30.4" width="67.3" height="18.44"/>
  <g>
    <path class="cls-4" d="M-115.8,68.46c-8.55,0-17.11-.04-25.66.02-2.34.02-3.66-.77-4.42-3.16-5.76-17.99-10.89-36.17-16.36-54.25-.62-2.05-1.46-2.86-3.56-2.57-1.1.15-2.27.06-3.15-.86-.8-.84-.99-1.83-.67-2.92.36-1.23,1.26-1.9,2.48-1.95,2.1-.09,4.2-.12,6.3-.04,1.52.06,2.44.98,2.86,2.44.61,2.16,1.42,4.28,1.86,6.48.47,2.37,1.56,3.13,4.08,3.12,24.31-.11,48.63-.07,72.94-.07.53,0,1.05-.01,1.58,0,2.86.08,3.99,1.42,3.32,4.21-1.43,5.98-2.96,11.93-4.45,17.9-2.36,9.46-4.73,18.91-7.1,28.36-.73,2.9-1.34,3.37-4.38,3.37-8.55,0-17.1,0-25.66,0,0-.04,0-.08,0-.11ZM-117.03,20.49c-11.4,0-22.8.02-34.2-.02-1.53,0-2.17.18-1.64,1.96,3.86,12.84,7.66,25.69,11.41,38.56.44,1.52,1.17,1.99,2.7,1.96,6.52-.15,13.04-.17,19.56-.16,8.69,0,17.37.02,26.06.04,1.59,0,2.17-.51,2.54-2.05,3.09-12.66,6.24-25.32,9.5-37.94.54-2.09-.09-2.39-1.95-2.38-11.32.06-22.65.03-33.97.03Z"/>
    <path class="cls-4" d="M-145.76,87.21c.02-5.59,3.04-9.95,7.7-11.69,4.68-1.75,10.09-.45,13.24,3.51,1.14,1.43,2.27,1.85,3.97,1.8,3.37-.11,6.76-.1,10.13,0,1.65.05,2.7-.44,3.77-1.77,3.19-4.01,8.71-5.34,13.44-3.49,4.76,1.86,7.79,6.55,7.56,11.68-.23,5.02-3.59,9.32-8.45,10.8-6.87,2.09-14.12-2.34-15.15-9.44-.24-1.65-.73-2.15-2.34-2.06-2.54.13-5.11.16-7.65-.01-1.8-.13-2.37.47-2.67,2.23-1.01,5.79-5.75,9.71-11.49,9.79-5.56.08-10.34-3.59-11.7-9.03-.23-.94-.28-1.92-.34-2.32ZM-133.89,92.76c3.37,0,6.2-2.86,6.14-6.19-.05-3.24-2.85-5.97-6.13-5.98-3.38-.02-6.15,2.8-6.09,6.19.05,3.3,2.79,5.99,6.08,5.98ZM-97.95,92.76c3.37.04,6.24-2.78,6.23-6.1-.01-3.25-2.76-6-6.04-6.07-3.38-.07-6.19,2.7-6.18,6.1,0,3.3,2.7,6.03,5.99,6.07Z"/>
  </g>
</svg>