<?xml version="1.0" encoding="UTF-8"?>
<svg id="Calque_1" data-name="Calque 1" xmlns="http://www.w3.org/2000/svg" version="1.1" viewBox="0 0 100 100">
  <defs>
    <style>
      .cls-1 {
        stroke: #fff;
        stroke-linecap: round;
        stroke-width: 4px;
      }

      .cls-1, .cls-2 {
        fill: none;
      }

      .cls-2 {
        stroke: #000;
        stroke-miterlimit: 10;
        stroke-width: 2px;
      }

      .cls-3 {
        fill: #fff;
        stroke-width: 0px;
      }
    </style>
  </defs>
  <g>
    <circle class="cls-2" cx="-48.2" cy="22.85" r="21.44"/>
    <path class="cls-2" d="M-59.66,54.18h22.93c12.84,0,23.26,10.42,23.26,23.26v21.46h-69.45v-21.46c0-12.84,10.42-23.26,23.26-23.26Z"/>
  </g>
  <line class="cls-1" x1="3.64" y1="10.38" x2="96.36" y2="10.38"/>
  <line class="cls-1" x1="3.64" y1="50" x2="96.36" y2="50"/>
  <line class="cls-1" x1="3.64" y1="89.62" x2="96.36" y2="89.62"/>
  <g>
    <path class="cls-3" d="M221.3,16.76c-.24-.32-.92-.51-1.86-.54-.35-.01-.7-.01-1.05,0h-16.69c-18.59-.01-37.82-.02-56.72.07h-.06c-3.25,0-4.89-1.3-5.5-4.33-.27-1.36-.69-2.68-1.14-4.09-.24-.75-.48-1.51-.69-2.27-.33-1.16-.9-1.34-1.47-1.36-1.94-.07-3.96-.06-6.18.04-.6.03-.93.29-1.1.88-.18.61-.09,1.03.31,1.46.26.27.71.56,1.86.4,3.48-.48,4.61,1.68,5.2,3.62,1.89,6.25,3.74,12.51,5.59,18.77,3.44,11.65,6.99,23.7,10.76,35.46.53,1.65,1.22,2.09,2.98,2.11,6.22-.04,12.54-.03,18.66-.03h8.51v.12h24.16q2.36,0,2.92-2.24c1.81-7.19,3.61-14.39,5.41-21.58l1.69-6.78c.43-1.68.85-3.36,1.27-5.04,1.06-4.21,2.16-8.56,3.18-12.84.21-.88.2-1.53-.04-1.83ZM217.36,23.22c-2.93,11.36-5.95,23.41-9.49,37.92-.55,2.23-1.74,3.19-3.99,3.19h-.01c-8.69-.02-17.38-.04-26.06-.04-7.28,0-13.39.03-19.53.17h-.16c-2.13,0-3.4-.97-4.01-3.04-3.71-12.77-7.55-25.74-11.4-38.56-.26-.87-.48-1.98.2-2.89.76-1.01,2.08-1.01,2.88-1,8.68.03,17.35.03,26.03.03h8.17s7.48,0,7.48,0c8.68.01,17.66.02,26.48-.03.86-.01,2.3-.01,3.13,1.04.74.95.54,2.22.28,3.21Z"/>
    <path class="cls-3" d="M202.95,76.97c-4.18-1.63-9-.38-11.72,3.04-1.36,1.7-2.87,2.4-4.99,2.33-3.31-.11-6.69-.11-10.03-.01-2.27.07-3.82-.63-5.19-2.36-2.7-3.4-7.34-4.62-11.54-3.04-4.17,1.55-6.68,5.36-6.73,10.19.01.1.02.22.04.35.04.46.11,1.1.26,1.69,1.17,4.68,5.29,7.9,10.06,7.9h.16c5.12-.07,9.15-3.51,10.04-8.55.3-1.73,1.06-3.69,4.25-3.47,2.19.15,4.57.16,7.47.01.11-.01.23-.01.33-.01,2.72,0,3.34,1.78,3.57,3.36.43,2.89,2.1,5.46,4.61,7.04,2.57,1.64,5.71,2.06,8.63,1.18,4.22-1.29,7.19-5.08,7.39-9.43.2-4.49-2.45-8.59-6.61-10.22ZM168.57,91.94c-1.45,1.47-3.43,2.32-5.45,2.32h-.01c-4.11,0-7.5-3.34-7.57-7.46-.03-2.05.75-3.99,2.2-5.46,1.45-1.46,3.36-2.27,5.4-2.26,4.07.03,7.55,3.44,7.62,7.46.03,2.01-.75,3.92-2.19,5.4ZM204.52,92.01c-1.44,1.43-3.41,2.25-5.39,2.25h-.09c-2.06-.02-3.93-.89-5.28-2.26-1.36-1.37-2.2-3.25-2.2-5.31s.81-3.98,2.29-5.43c1.47-1.44,3.35-2.22,5.43-2.17,4.12.08,7.49,3.47,7.51,7.56,0,2-.8,3.9-2.27,5.36Z"/>
  </g>
</svg>